<svg xmlns="http://www.w3.org/2000/svg" viewBox="0 0 1366 768"><defs><style>.cls-1{opacity:0.4;}.cls-2,.cls-3,.cls-5,.cls-6{fill:none;stroke:#666;stroke-miterlimit:10;}.cls-2,.cls-3{stroke-width:0.25px;}.cls-2{stroke-dasharray:12.03 12.03;}.cls-3{stroke-dasharray:11.85 11.85;}.cls-4{opacity:0.76;}.cls-5{opacity:0.44;}</style></defs><g id="Layer_1" data-name="Layer 1"><g class="cls-1"><line class="cls-2" x1="-32.19" y1="427.52" x2="1404.99" y2="427.52"/></g><g class="cls-1"><line class="cls-2" x1="-32.19" y1="471.13" x2="1404.99" y2="471.13"/></g><g class="cls-1"><line class="cls-2" x1="-32.37" y1="514.56" x2="1404.8" y2="514.56"/></g><g class="cls-1"><line class="cls-2" x1="-32.37" y1="557.94" x2="1404.8" y2="557.94"/></g><g class="cls-1"><line class="cls-2" x1="-32.23" y1="210.21" x2="1404.94" y2="210.21"/></g><g class="cls-1"><line class="cls-2" x1="-32.23" y1="253.81" x2="1404.94" y2="253.81"/></g><g class="cls-1"><line class="cls-2" x1="-32.42" y1="297.25" x2="1404.75" y2="297.25"/></g><g class="cls-1"><line class="cls-2" x1="-32.42" y1="340.62" x2="1404.75" y2="340.62"/></g><g class="cls-1"><line class="cls-3" x1="770.07" y1="781.32" x2="770.07" y2="-18.84"/></g><g class="cls-1"><line class="cls-3" x1="813.45" y1="781.09" x2="813.45" y2="-19.07"/></g><g class="cls-1"><line class="cls-3" x1="857.05" y1="781.09" x2="857.05" y2="-19.07"/></g><g class="cls-1"><line class="cls-3" x1="900.49" y1="781.19" x2="900.49" y2="-18.97"/></g><g class="cls-1"><line class="cls-3" x1="943.86" y1="781.19" x2="943.86" y2="-18.97"/></g><g class="cls-1"><line class="cls-3" x1="596.13" y1="781.11" x2="596.13" y2="-19.05"/></g><g class="cls-1"><line class="cls-3" x1="639.74" y1="781.11" x2="639.74" y2="-19.05"/></g><g class="cls-1"><line class="cls-3" x1="726.55" y1="781.22" x2="726.55" y2="-18.94"/></g><g class="cls-1"><line class="cls-3" x1="987.37" y1="781.46" x2="987.37" y2="-18.7"/></g><g class="cls-1"><line class="cls-3" x1="1030.8" y1="781.56" x2="1030.8" y2="-18.6"/></g><g class="cls-1"><line class="cls-3" x1="1074.18" y1="781.56" x2="1074.18" y2="-18.6"/></g><g class="cls-1"><line class="cls-3" x1="1117.66" y1="781.09" x2="1117.66" y2="-19.07"/></g><g class="cls-1"><line class="cls-3" x1="1161.26" y1="781.09" x2="1161.26" y2="-19.07"/></g><g class="cls-1"><line class="cls-3" x1="1204.7" y1="781.19" x2="1204.7" y2="-18.97"/></g><g class="cls-1"><line class="cls-3" x1="1248.07" y1="781.19" x2="1248.07" y2="-18.97"/></g><g class="cls-1"><line class="cls-3" x1="1291.58" y1="781.46" x2="1291.58" y2="-18.7"/></g><g class="cls-1"><line class="cls-3" x1="1335.01" y1="781.56" x2="1335.01" y2="-18.6"/></g><g class="cls-1"><line class="cls-3" x1="291.94" y1="781.44" x2="291.94" y2="-18.72"/></g><g class="cls-1"><line class="cls-3" x1="335.32" y1="781.21" x2="335.32" y2="-18.95"/></g><g class="cls-1"><line class="cls-3" x1="378.93" y1="781.21" x2="378.93" y2="-18.95"/></g><g class="cls-1"><line class="cls-3" x1="422.36" y1="781.31" x2="422.36" y2="-18.84"/></g><g class="cls-1"><line class="cls-3" x1="465.73" y1="781.31" x2="465.73" y2="-18.84"/></g><g class="cls-1"><line class="cls-3" x1="509.24" y1="781.58" x2="509.24" y2="-18.58"/></g><g class="cls-1"><line class="cls-3" x1="552.67" y1="781.69" x2="552.67" y2="-18.47"/></g><g class="cls-1"><line class="cls-3" x1="31.11" y1="781.21" x2="31.11" y2="-18.95"/></g><g class="cls-1"><line class="cls-3" x1="74.72" y1="781.21" x2="74.72" y2="-18.95"/></g><g class="cls-1"><line class="cls-3" x1="118.15" y1="781.31" x2="118.15" y2="-18.84"/></g><g class="cls-1"><line class="cls-3" x1="161.52" y1="781.31" x2="161.52" y2="-18.84"/></g><g class="cls-1"><line class="cls-3" x1="205.03" y1="781.58" x2="205.03" y2="-18.58"/></g><g class="cls-1"><line class="cls-3" x1="248.46" y1="781.69" x2="248.46" y2="-18.47"/></g><g class="cls-1"><line class="cls-2" x1="-32.66" y1="166.34" x2="1404.51" y2="166.34"/></g><g class="cls-1"><line class="cls-2" x1="-32.23" y1="36.21" x2="1404.94" y2="36.21"/></g><g class="cls-1"><line class="cls-2" x1="-32.23" y1="79.81" x2="1404.94" y2="79.81"/></g><g class="cls-1"><line class="cls-2" x1="-32.42" y1="123.25" x2="1404.75" y2="123.25"/></g><g class="cls-1"><line class="cls-2" x1="-32.66" y1="601.35" x2="1404.51" y2="601.35"/></g><g class="cls-1"><line class="cls-2" x1="-32.19" y1="601.52" x2="1404.99" y2="601.52"/></g><g class="cls-1"><line class="cls-2" x1="-32.19" y1="645.13" x2="1404.99" y2="645.13"/></g><g class="cls-1"><line class="cls-2" x1="-32.37" y1="688.56" x2="1404.8" y2="688.56"/></g><g class="cls-1"><line class="cls-2" x1="-32.37" y1="731.94" x2="1404.8" y2="731.94"/></g></g><g id="Layer_2" data-name="Layer 2"><g class="cls-4"><line class="cls-5" x1="-50.61" y1="384.04" x2="1416.61" y2="384.04"/><line class="cls-5" x1="683.19" y1="798.97" x2="683.19" y2="-30.97"/><circle class="cls-6" cx="683.04" cy="384.01" r="130.59"/><circle class="cls-6" cx="683.04" cy="384.01" r="217.86"/></g></g></svg>