<svg id="Layer_1" data-name="Layer 1" xmlns="http://www.w3.org/2000/svg" viewBox="0 0 1366 768"><defs><style>.cls-1,.cls-3,.cls-4,.cls-5{fill:none;stroke:#666;stroke-miterlimit:10;}.cls-1{stroke-width:2px;}.cls-1,.cls-2{opacity:0.44;}.cls-3{stroke-dasharray:12.01 12.01;}.cls-4{stroke-dasharray:12.01 12.01;}</style></defs><line class="cls-1" x1="-157.49" y1="384.06" x2="1523.53" y2="384.06"/><g class="cls-2"><line class="cls-3" x1="-139.01" y1="455.64" x2="1512" y2="455.64"/></g><g class="cls-2"><line class="cls-3" x1="-139.01" y1="527.6" x2="1512" y2="527.6"/></g><g class="cls-2"><line class="cls-3" x1="-139.22" y1="599.27" x2="1511.78" y2="599.27"/></g><g class="cls-2"><line class="cls-3" x1="-139.22" y1="670.85" x2="1511.78" y2="670.85"/></g><g class="cls-2"><line class="cls-3" x1="-139.06" y1="97.03" x2="1511.94" y2="97.03"/></g><g class="cls-2"><line class="cls-3" x1="-139.06" y1="168.99" x2="1511.94" y2="168.99"/></g><g class="cls-2"><line class="cls-3" x1="-139.28" y1="240.67" x2="1511.73" y2="240.67"/></g><g class="cls-2"><line class="cls-3" x1="-139.28" y1="312.24" x2="1511.73" y2="312.24"/></g><g class="cls-2"><line class="cls-4" x1="826.64" y1="1050.92" x2="826.64" y2="-288.61"/></g><g class="cls-2"><line class="cls-4" x1="898.22" y1="1050.53" x2="898.22" y2="-288.99"/></g><g class="cls-2"><line class="cls-4" x1="970.18" y1="1050.53" x2="970.18" y2="-288.99"/></g><g class="cls-2"><line class="cls-4" x1="1041.85" y1="1050.71" x2="1041.85" y2="-288.82"/></g><g class="cls-2"><line class="cls-4" x1="1113.43" y1="1050.71" x2="1113.43" y2="-288.82"/></g><g class="cls-2"><line class="cls-4" x1="539.61" y1="1050.58" x2="539.61" y2="-288.95"/></g><g class="cls-2"><line class="cls-4" x1="611.57" y1="1050.58" x2="611.57" y2="-288.95"/></g><line class="cls-1" x1="683.24" y1="1068.77" x2="683.24" y2="-300.78"/><g class="cls-2"><line class="cls-4" x1="754.82" y1="1050.75" x2="754.82" y2="-288.78"/></g><g class="cls-2"><line class="cls-4" x1="1185.22" y1="1051.15" x2="1185.22" y2="-288.38"/></g><g class="cls-2"><line class="cls-4" x1="1256.89" y1="1051.32" x2="1256.89" y2="-288.21"/></g><g class="cls-2"><line class="cls-4" x1="1328.47" y1="1051.32" x2="1328.47" y2="-288.21"/></g><g class="cls-2"><line class="cls-4" x1="37.65" y1="1051.12" x2="37.65" y2="-288.41"/></g><g class="cls-2"><line class="cls-4" x1="109.22" y1="1050.74" x2="109.22" y2="-288.79"/></g><g class="cls-2"><line class="cls-4" x1="181.18" y1="1050.74" x2="181.18" y2="-288.79"/></g><g class="cls-2"><line class="cls-4" x1="252.86" y1="1050.91" x2="252.86" y2="-288.62"/></g><g class="cls-2"><line class="cls-4" x1="324.43" y1="1050.91" x2="324.43" y2="-288.62"/></g><g class="cls-2"><line class="cls-4" x1="396.22" y1="1051.35" x2="396.22" y2="-288.17"/></g><g class="cls-2"><line class="cls-4" x1="467.9" y1="1051.53" x2="467.9" y2="-288"/></g><g class="cls-2"><line class="cls-3" x1="-139.55" y1="24.64" x2="1511.45" y2="24.64"/></g><g class="cls-2"><line class="cls-3" x1="-139.55" y1="742.49" x2="1511.45" y2="742.49"/></g><circle class="cls-5" cx="683" cy="384" r="215.5"/><circle class="cls-5" cx="683" cy="384" r="359.5"/></svg>