<svg xmlns="http://www.w3.org/2000/svg" viewBox="0 0 742.21 358.72"><defs><style>.cls-1{fill:#FFF;}</style></defs><g id="Layer_1" data-name="Layer 1"><path class="cls-1" d="M176.21,363.33h87.94a7.1,7.1,0,0,1,7.31,6.88V541.35q0,60.92,25.38,74.59,15.86,12.91,44.41,12.92,45.33,0,62.09-40.05a8,8,0,0,0,.46-1.49,121.38,121.38,0,0,0,3-24.09v-193a7.1,7.1,0,0,1,7.31-6.88h89a7.11,7.11,0,0,1,7.32,6.88V551.29q0,101-66.62,140.23Q402.59,719.36,337,719.36q-118.95,0-156.49-91.49-11.64-30.09-11.64-67.63v-190A7.11,7.11,0,0,1,176.21,363.33Z" transform="translate(-168.89 -360.64)"/></g><g id="Layer_3" data-name="Layer 3"><path class="cls-1" d="M704,448l-56.82-83.18a3.58,3.58,0,0,0-2.95-1.52h-108a3.3,3.3,0,0,0-3,5.08L647.56,535.59a3.13,3.13,0,0,1,0,3.56L533.29,706.33a3.3,3.3,0,0,0,3,5.08h108a3.55,3.55,0,0,0,2.95-1.52L704,626.71l59.47-83.56a7,7,0,0,0,.08-8Z" transform="translate(-168.89 -360.64)"/></g><g id="Layer_2" data-name="Layer 2"><path class="cls-1" d="M793.42,554.67a3.57,3.57,0,0,1,5.74,0L910.54,710.7a3.29,3.29,0,0,1-2.94,5.08h-108a3.55,3.55,0,0,1-2.94-1.51l-55.09-80.65a4.39,4.39,0,0,1,0-5ZM910.54,365.72a3.29,3.29,0,0,0-2.94-5.08h-108a3.55,3.55,0,0,0-2.94,1.51l-54.95,80.44a4.75,4.75,0,0,0,0,5.46l51.94,74.1a3.22,3.22,0,0,0,5.18,0Z" transform="translate(-168.89 -360.64)"/></g></svg>